<svg id="folder-closed" width="24px" height="18px" viewBox="0 0 161 130" xmlns="http://www.w3.org/2000/svg"
    style="min-width:24px">
    <g fill="none" fill-rule="evenodd">
        <path
            d="M15 0h41l18 17h72c8.284 0 15 6.716 15 15v83c0 8.284-6.716 15-15 15H15c-8.284 0-15-6.716-15-15V15C0 6.716 6.716 0 15 0z"
            fill="#FFAF00"></path>
        <path
            d="M15 17h131c8.284 0 15 6.716 15 15v83c0 8.284-6.716 15-15 15H15c-8.284 0-15-6.716-15-15V32c0-8.284 6.716-15 15-15z"
            fill="#FFD233"></path>
    </g>
</svg>